<svg id="图层_1" data-name="图层 1" xmlns="http://www.w3.org/2000/svg" viewBox="0 0 40 40"><defs><style>.cls-1{fill:#aac148;}</style></defs><title>ic_apk_file_1</title><path class="cls-1" d="M30.15,13.21H9.85A.81.81,0,0,0,9,14V31a.82.82,0,0,0,.81.82h3.62v5.73a2.41,2.41,0,1,0,4.82,0V31.86h3.37v5.73a2.41,2.41,0,1,0,4.82,0V31.86h3.67A.82.82,0,0,0,31,31V14A.81.81,0,0,0,30.15,13.21ZM5.6,13.2a2.41,2.41,0,0,0-2.41,2.41V25.4A2.41,2.41,0,0,0,8,25.4V15.61A2.41,2.41,0,0,0,5.6,13.2Zm28.8,0A2.41,2.41,0,0,0,32,15.61V25.4a2.41,2.41,0,0,0,4.82,0V15.61A2.41,2.41,0,0,0,34.4,13.2ZM10,12H29.93a.81.81,0,0,0,.8-1,11,11,0,0,0-5.37-7.32L27.07.64A.44.44,0,0,0,26.9.05a.44.44,0,0,0-.59.17L24.6,3.32a11,11,0,0,0-9.25,0L13.64.22a.44.44,0,0,0-.59-.17.44.44,0,0,0-.16.59l1.7,3.07A11,11,0,0,0,9.22,11,.81.81,0,0,0,10,12Zm15.9-4.58a.93.93,0,1,1-1.85,0,.93.93,0,0,1,1.85,0ZM15,6.51a.93.93,0,1,1-.93.92A.93.93,0,0,1,15,6.51Z"/></svg>